<svg xmlns="http://www.w3.org/2000/svg" version="1.1" xmlns:xlink="http://www.w3.org/1999/xlink" width="512" height="512" x="0" y="0" viewBox="0 0 60.01 60.01" style="enable-background:new 0 0 512 512" xml:space="preserve" class=""><g><path d="M40.224 0H19.785c-3.584 0-6.5 2.893-6.5 6.449v47.113c0 3.554 2.916 6.448 6.5 6.448h20.438c3.584 0 6.501-2.894 6.501-6.448V6.449C46.725 2.893 43.808 0 40.224 0zm4.352 53.562c0 2.37-1.952 4.299-4.352 4.299H19.785c-2.399 0-4.351-1.929-4.351-4.299V6.449h.001c0-2.371 1.952-4.299 4.351-4.299h20.438c2.399 0 4.352 1.928 4.352 4.299v47.113zm-2.21-47.247h-24.72a.536.536 0 0 0-.537.537v41.753c0 .296.24.538.537.538h24.72a.538.538 0 0 0 .538-.538V6.852a.538.538 0 0 0-.538-.537zm-.537 41.752H18.182V7.389h23.646l.001 40.678zm-11.823 1.971c-1.811 0-3.285 1.473-3.285 3.284s1.474 3.284 3.285 3.284 3.283-1.474 3.283-3.284a3.287 3.287 0 0 0-3.283-3.284zm0 5.493c-1.219 0-2.21-.991-2.21-2.209s.991-2.21 2.21-2.21c1.218 0 2.209.992 2.209 2.21a2.212 2.212 0 0 1-2.209 2.209zM26.451 4.204c0-.219.214-.396.478-.396h6.151c.264 0 .477.177.477.396s-.212.396-.476.396H26.93c-.263 0-.478-.177-.479-.396z" style="" fill="#F39C12" data-original="#010002" opacity="1" class=""></path></g></svg>