<svg xmlns="http://www.w3.org/2000/svg" version="1.1" xmlns:xlink="http://www.w3.org/1999/xlink" width="512" height="512" x="0" y="0" viewBox="0 0 682.667 682.667" style="enable-background:new 0 0 512 512" xml:space="preserve"><g><defs><clipPath id="a" clipPathUnits="userSpaceOnUse"><path d="M0 512h512V0H0Z" fill="#000000" opacity="1" data-original="#000000"></path></clipPath></defs><g clip-path="url(#a)" transform="matrix(1.33333 0 0 -1.33333 0 682.667)"><path d="M0 0h340c11 0 20-9 20-20v-452.002c0-11-9-19.999-20-19.999H0c-11 0-20 8.999-20 19.999V-20C-20-9-11 0 0 0z" style="stroke-linecap: round; stroke-linejoin: round; stroke-miterlimit: 22.926; stroke-dasharray: none; stroke-opacity: 1;" transform="translate(85.999 502.001)" fill="none" stroke="#000000" stroke-width="20px" stroke-linecap="round" stroke-linejoin="round" stroke-miterlimit="22.926" stroke-dasharray="none" stroke-opacity="" data-original="#000000"></path><path d="M0 0h.007" style="stroke-linecap: round; stroke-linejoin: round; stroke-miterlimit: 22.926; stroke-dasharray: none; stroke-opacity: 1;" transform="translate(106 462)" fill="none" stroke="#000000" stroke-width="20px" stroke-linecap="round" stroke-linejoin="round" stroke-miterlimit="22.926" stroke-dasharray="none" stroke-opacity="" data-original="#000000"></path><path d="M0 0h-.007" style="stroke-linecap: round; stroke-linejoin: round; stroke-miterlimit: 22.926; stroke-dasharray: none; stroke-opacity: 1;" transform="translate(409.371 462)" fill="none" stroke="#000000" stroke-width="20px" stroke-linecap="round" stroke-linejoin="round" stroke-miterlimit="22.926" stroke-dasharray="none" stroke-opacity="" data-original="#000000"></path><path d="M0 0h.007" style="stroke-linecap: round; stroke-linejoin: round; stroke-miterlimit: 22.926; stroke-dasharray: none; stroke-opacity: 1;" transform="translate(106 50)" fill="none" stroke="#000000" stroke-width="20px" stroke-linecap="round" stroke-linejoin="round" stroke-miterlimit="22.926" stroke-dasharray="none" stroke-opacity="" data-original="#000000"></path><path d="M0 0h-.007" style="stroke-linecap: round; stroke-linejoin: round; stroke-miterlimit: 22.926; stroke-dasharray: none; stroke-opacity: 1;" transform="translate(409.371 50)" fill="none" stroke="#000000" stroke-width="20px" stroke-linecap="round" stroke-linejoin="round" stroke-miterlimit="22.926" stroke-dasharray="none" stroke-opacity="" data-original="#000000"></path><path d="M0 0a139.999 139.999 0 0 0-81.868-26.432c-77.32 0-140 62.68-140 140s62.68 140 140 140 140-62.68 140-140A140 140 0 0 0 31.699 31.7" style="stroke-linecap: round; stroke-linejoin: round; stroke-miterlimit: 22.926; stroke-dasharray: none; stroke-opacity: 1;" transform="translate(339.554 208.433)" fill="none" stroke="#000000" stroke-width="20px" stroke-linecap="round" stroke-linejoin="round" stroke-miterlimit="22.926" stroke-dasharray="none" stroke-opacity="" data-original="#000000"></path><path d="M0 0c11.016 0 20 8.984 20 20 0 11.015-8.984 20-20 20s-20-8.985-20-20C-20 8.984-11.016 0 0 0Z" style="stroke-linecap: round; stroke-linejoin: round; stroke-miterlimit: 22.926; stroke-dasharray: none; stroke-opacity: 1;" transform="translate(257.685 302.001)" fill="none" stroke="#000000" stroke-width="20px" stroke-linecap="round" stroke-linejoin="round" stroke-miterlimit="22.926" stroke-dasharray="none" stroke-opacity="" data-original="#000000"></path><path d="M0 0v0c7.778 7.778 20.507 7.776 28.284 0l59.853-59.853c7.776-7.776 7.778-20.505 0-28.284-7.779-7.779-20.508-7.777-28.284 0L0-28.284C-7.776-20.508-7.778-7.779 0 0Z" style="stroke-linecap: round; stroke-linejoin: round; stroke-miterlimit: 22.926; stroke-dasharray: none; stroke-opacity: 1;" transform="translate(303.715 275.972)" fill="none" stroke="#000000" stroke-width="20px" stroke-linecap="round" stroke-linejoin="round" stroke-miterlimit="22.926" stroke-dasharray="none" stroke-opacity="" data-original="#000000"></path><path d="M175.244 80h160v47.369h-160z" style="stroke-linecap: round; stroke-linejoin: round; stroke-miterlimit: 22.926; stroke-dasharray: none; stroke-opacity: 1;" fill="none" stroke="#000000" stroke-width="20px" stroke-linecap="round" stroke-linejoin="round" stroke-miterlimit="22.926" stroke-dasharray="none" stroke-opacity="" data-original="#000000"></path></g></g></svg>