<svg xmlns="http://www.w3.org/2000/svg" version="1.1" xmlns:xlink="http://www.w3.org/1999/xlink" width="512" height="512" x="0" y="0" viewBox="0 0 64 64" style="enable-background:new 0 0 512 512" xml:space="preserve" class=""><g><path d="M52 .25H12A4.756 4.756 0 0 0 7.25 5v54A4.756 4.756 0 0 0 12 63.75h40A4.756 4.756 0 0 0 56.75 59V5A4.756 4.756 0 0 0 52 .25ZM55.25 59A3.254 3.254 0 0 1 52 62.25H12A3.254 3.254 0 0 1 8.75 59V5A3.254 3.254 0 0 1 12 1.75h40A3.254 3.254 0 0 1 55.25 5Z" fill="#FEB822" opacity="1" data-original="#000000" class=""></path><path d="M32 17.25A7.75 7.75 0 1 0 39.75 25 7.759 7.759 0 0 0 32 17.25Zm0 14A6.25 6.25 0 1 1 38.25 25 6.257 6.257 0 0 1 32 31.25Z" fill="#FEB822" opacity="1" data-original="#000000" class=""></path><path d="M32 20.25A4.75 4.75 0 1 0 36.75 25 4.756 4.756 0 0 0 32 20.25Zm0 8A3.25 3.25 0 1 1 35.25 25 3.254 3.254 0 0 1 32 28.25Z" fill="#FEB822" opacity="1" data-original="#000000" class=""></path><path d="M32 4.25A20.774 20.774 0 0 0 11.25 25v18A14.767 14.767 0 0 0 26 57.75h22A4.756 4.756 0 0 0 52.75 53V25A20.774 20.774 0 0 0 32 4.25ZM51.25 53A3.254 3.254 0 0 1 48 56.25H26A13.265 13.265 0 0 1 12.75 43V32.717a20.768 20.768 0 0 0 8.116 9.79l-.336.178a4.281 4.281 0 1 0 4.87 6.959l4.45-4.024a20.52 20.52 0 0 0 2.15.13 20.772 20.772 0 0 0 19.25-13.044ZM24.4 48.531a2.781 2.781 0 1 1-3.166-4.521l12.956-6.852a.949.949 0 0 1 1.08 1.543ZM32 44.25c-.194 0-.405-.013-.609-.021l4.882-4.415a2.449 2.449 0 0 0-2.788-3.982l-11.066 5.854A19.236 19.236 0 1 1 32 44.25Z" fill="#FEB822" opacity="1" data-original="#000000" class=""></path><path d="M22.637 45.748a.75.75 0 1 0 .608.869.75.75 0 0 0-.608-.869ZM48 53.75a.75.75 0 0 0 .75-.75v-4a.75.75 0 0 0-1.5 0v4a.75.75 0 0 0 .75.75ZM45 48.25a.75.75 0 0 0-.75.75v4a.75.75 0 0 0 1.5 0v-4a.75.75 0 0 0-.75-.75ZM42 48.25a.75.75 0 0 0-.75.75v4a.75.75 0 0 0 1.5 0v-4a.75.75 0 0 0-.75-.75Z" fill="#FEB822" opacity="1" data-original="#000000" class=""></path><circle cx="38" cy="51" r=".75" fill="#FEB822" opacity="1" data-original="#000000" class=""></circle><circle cx="35" cy="51" r=".75" fill="#FEB822" opacity="1" data-original="#000000" class=""></circle><circle cx="32" cy="51" r=".75" fill="#FEB822" opacity="1" data-original="#000000" class=""></circle><path d="M50.5 4.25a2.25 2.25 0 1 0 2.25 2.25 2.253 2.253 0 0 0-2.25-2.25Zm0 3a.75.75 0 1 1 .75-.75.752.752 0 0 1-.75.75ZM13.5 8.75a2.25 2.25 0 1 0-2.25-2.25 2.253 2.253 0 0 0 2.25 2.25Zm0-3a.75.75 0 1 1-.75.75.752.752 0 0 1 .75-.75ZM13.5 55.25a2.25 2.25 0 1 0 2.25 2.25 2.253 2.253 0 0 0-2.25-2.25Zm0 3a.75.75 0 1 1 .75-.75.752.752 0 0 1-.75.75Z" fill="#FEB822" opacity="1" data-original="#000000" class=""></path></g></svg>