<svg xmlns="http://www.w3.org/2000/svg" version="1.1" xmlns:xlink="http://www.w3.org/1999/xlink" width="512" height="512" x="0" y="0" viewBox="0 0 190.839 190.84" style="enable-background:new 0 0 512 512" xml:space="preserve" class=""><g><path d="M152.946 141.085c.205-17.924.495-35.803-.284-53.719-.716-16.462-.447-32.579.242-49.044.035-.826.102-1.756.169-2.702.23-.248.279-.593.062-.887.636-8.234 1.912-19.885-2.06-26.286-7.596-12.244-36.017-5.271-47.973-5.729-11.22-.43-54.513-8.628-60.973 5.723-2.592 5.758-2.635 11.463-2.446 17.528l-.053-.025c-.723-.318-1.365.724-.631 1.079.251.122.48.277.728.403.03.876.062 1.758.087 2.652.047 1.637.043 3.277.043 4.917-.112-.07-.214-.155-.327-.224-.475-.293-.885.433-.432.74.268.182.506.398.769.586a294.865 294.865 0 0 1-.134 7.459c-.26-.243-.526-.48-.787-.722-.398-.371-.966.198-.596.596.436.468.91.9 1.35 1.366-.209 6.063-.555 12.134-.876 18.202-.435-.299-.861-.612-1.313-.888-.367-.225-.819.334-.468.607.595.463 1.144.97 1.722 1.449-.298 5.744-.549 11.484-.577 17.209-.164 34.469-1.642 69.955 1.887 104.262.056.541.398.833.789 1.005.173.19.392.353.719.424 16.575 3.62 33.703 3.39 50.74 3.093.186.172.361.353.547.522.454.414.976-.063.838-.544 6.693-.116 13.37-.226 19.99-.103 14.331.269 36.77 3.089 39.607-15.337 1.626-10.551-.481-22.946-.359-33.612zm-54.689 32.223c.054.065.116.122.172.188-2.238.839-5.202-1.104-5.199-3.463.002-2.519 2.524-5.055 4.999-6.247 2.379.401 3.91 1.662 3.825 4.254-.062 1.922-1.205 3.855-2.773 4.973-.122-.122-.258-.226-.378-.349-.418-.432-1.016.198-.646.644zm-6.552-7.019c-.012-.01-.008-.023-.021-.031-5.565-3.788-10.899-7.753-16.169-11.91 1.837-.07 3.68-.188 5.522-.31 4.165 3.298 8.238 6.825 12.663 9.78a10.805 10.805 0 0 0-1.995 2.471zm-26.235-14.73c-.226-.252-.504-.451-.851-.467-2.115-.101-4.198.684-6.318.142-.063-.016-.109.031-.17.025 3.8-11.701-2.226-107.252-1.694-128.938.209-.274.272-.701.032-1.004l-.001-.001a33.84 33.84 0 0 1 .123-2.001c25.088-2.632 51.718 4.955 76.153-2.091 2.178 34.556-2.638 70.164.386 104.755-.396.08-.482.733-.034.811.033.006.086.034.122.045.176 1.922.36 3.843.588 5.759-.348.069-.611.483-.272.785.138.122.269.248.404.37.752 6.047 1.752 12.061 3.139 18.023-6.298-3.085-23.599.57-28.605.861-14.315.831-28.723 1.524-43.002 2.926zm72.001-95.066c3.686 2.938 7.341 6.189 11.516 8.165-.088 2.507-.198 5.014-.212 7.515-4.107-2.246-7.678-5.289-11.362-8.184.045-2.5.044-4.998.058-7.496zm-.042-7.738c3.799 2.911 7.562 6.396 11.894 8.214-.104 2.076-.214 4.153-.295 6.227-3.936-2.538-7.648-5.412-11.547-7.991.006-2.15-.028-4.3-.052-6.45zm5.911 21.653c1.568 1.263 3.415 2.863 5.438 3.55.007 1.935.03 3.869.107 5.799.007.165.007.329.014.494-1.901-1.605-3.998-2.983-5.859-4.666-1.922-1.739-3.775-3.54-5.761-5.207.04-1.649.072-3.298.104-4.947 1.984 1.661 3.942 3.357 5.957 4.977zm-.528 6.603c1.79 1.644 3.808 3.605 6.12 4.475.056 1.853.101 3.706.15 5.559-4.104-2.68-8.19-5.168-12.026-8.299.065-2.313.128-4.625.187-6.938 1.878 1.713 3.698 3.485 5.569 5.203zm6.314 11.616c.055 2.233.141 4.469.182 6.702-1.906-1.379-4.068-2.593-5.867-3.897-2.062-1.496-4.161-3.177-6.628-3.936.065-2.478.136-4.956.206-7.435 3.552 3.368 7.775 6.39 12.107 8.566zm-5.216 4.824c1.621 1.288 3.47 3.103 5.437 4.183.034 2.075.077 4.15.102 6.225-2.545-1.289-4.924-2.506-7.265-4.17-1.849-1.312-3.674-2.649-5.564-3.896.046-2.517.112-5.033.178-7.549 2.586 1.035 5.004 3.532 7.112 5.207zm-2.364 7.327c2.177 1.644 4.717 3.745 7.484 4.192a.633.633 0 0 0 .43-.086c.034 3.092.086 6.185.104 9.276-2.647-1.726-9.683-7.06-13.062-9.596.01-2.477.059-4.955.1-7.433 1.673 1.181 3.308 2.414 4.944 3.647zm-3.972 49.97c.356.127.632.033.86-.131.59.007 1.215-.44 1.083-1.211-.551-3.227-.989-6.455-1.372-9.685 3.045 4.274 7.106 8.198 11.432 10.963-.01 1.885-.018 3.765-.025 5.652-.005.966.055 1.915.082 2.873-5.182-2.84-10.182-6.096-15.199-9.243 1.122.187 2.179.438 3.139.782zm-.066-17.729a387.275 387.275 0 0 0 3.956 3.621c2.151 1.936 4.745 4.692 7.586 5.554.243.074.447-.045.563-.224-.01 2.276-.016 4.549-.026 6.827-4.237-3.535-8.506-6.698-11.679-11.341-.159-1.477-.271-2.957-.4-4.437zm12.107 8.409c-.021-.037-.02-.08-.053-.113-2.113-2.096-4.904-3.646-7.202-5.571-1.688-1.414-3.34-2.872-4.996-4.325a252.302 252.302 0 0 1-.406-6.193c4.08 3.123 9.944 8.206 12.676 9.035-.008 2.386-.009 4.776-.019 7.167zm-2.582-10.478c-1.867-1.324-3.681-2.724-5.524-4.078-1.277-.938-2.926-2.428-4.651-3.526-.097-2-.165-4-.223-6.001 4.309 2.875 8.44 6.174 13.003 8.491 0 2.304.006 4.606 0 6.912-.77-.61-2.257-1.551-2.605-1.798zm-10.436-14.882c-.083-3.342-.086-6.686-.083-10.028 3.425 2.938 9.673 8.238 13.061 9.527.016 2.936.061 5.871.062 8.808-4.044-3.084-8.572-5.802-13.04-8.307zm-4.447 33.657c3.869 2.604 7.718 5.236 11.644 7.758 1.454.936 3.691 2.771 5.9 3.853.117 2.68.257 5.349.308 8.019-7.411-7.761-17.739-13.379-26.58-19.555 3.077-.248 6.033-.298 8.728-.075zm17.248-94.338c-2.057-1.271-4.136-2.498-6.117-3.922-1.952-1.402-3.884-2.821-5.863-4.175a349.112 349.112 0 0 0-.174-6.633 373.145 373.145 0 0 0 5.489 3.566c1.84 1.17 4.189 3.587 6.329 4.031.407.084.752-.32.54-.702-.978-1.756-3.939-2.903-5.597-3.919a371.886 371.886 0 0 1-6.794-4.276c-.084-2.218-.262-4.432-.397-6.648 1.961 1.42 3.923 2.839 5.919 4.207 1.859 1.274 4.003 3.117 6.306 3.435.579.08 1.076-.737.438-1.04-4.494-2.133-8.533-4.957-12.723-7.595-.191-2.91-.428-5.818-.714-8.724 4.559 3.983 9.155 8.218 14.174 11.524-.077 6.942-.459 13.907-.816 20.871zm.829-23.041c-4.673-3.781-9.537-7.419-14.378-10.976-.213-1.991-.42-3.982-.706-5.97 4.751 3.529 9.576 6.962 14.314 10.431.236.173.468.134.675.029.079 2.16.097 4.322.095 6.486zm-1.082-17.092c-1.996-2.225-4.359-4.221-6.526-6.091-1.218-1.051-2.492-2.042-3.767-3.034 4.897.977 8.873 3.475 10.293 9.125zm-13.257-9.523c1.887 1.491 3.75 3.01 5.553 4.611 2.925 2.596 5.394 5.685 8.219 8.353a134.5 134.5 0 0 1 .381 5.569c-7.521-7.104-16.707-12.292-25.124-18.339 3.577-.268 7.408-.503 10.971-.194zm-12.572.314a227.88 227.88 0 0 0 10.088 8.039c-.3.117-.566.295-.691.589-1.402.273-2.806.469-4.209.672-1.942-1.402-3.987-2.685-5.846-4.213-1.833-1.508-3.546-3.147-5.254-4.791 1.755.008 3.776-.133 5.912-.296zm-7.831.252c1.971 2.033 3.969 4.046 6.089 5.92 1.318 1.165 2.753 2.414 4.277 3.492-1.608.189-3.216.363-4.825.487-2.053-1.649-4.402-3.027-6.418-4.715-2.114-1.77-4.13-3.65-6.18-5.493 2.353.104 4.706.203 7.057.309zm-8.955-.392c2.34 2.211 4.638 4.465 6.973 6.682 1.304 1.239 2.772 2.641 4.354 3.819-1.094.057-2.187.116-3.282.149-2.254-1.597-4.949-2.819-7.229-4.326-3.3-2.181-6.439-4.603-9.781-6.717 2.988.127 5.975.263 8.965.393zM82.266 4.902c1.877.04 3.754.141 5.631.202 2.572 1.702 4.88 3.709 7.158 5.782 1.8 1.637 3.601 3.843 5.852 4.853.663.297 1.373-.476.809-1.048-1.923-1.948-4.362-3.489-6.437-5.3-1.734-1.514-3.542-2.95-5.462-4.218 2.404.085 4.806.215 7.209.316-.217.15-.336.457-.096.67 2.752 2.435 5.731 4.611 8.707 6.762 1.496 1.082 3.255 2.539 5.099 3.702-5.167.042-10.336-.11-15.505-.298-4.334-4.171-9.442-7.86-14.363-11.449.458.009.961.019 1.398.026zm-2.982-.056c4.331 3.766 8.569 7.994 13.219 11.383-1.659-.061-3.317-.122-4.976-.175-2.679-2.314-5.572-4.411-8.265-6.718a96.306 96.306 0 0 0-5.727-4.531 218.97 218.97 0 0 1 5.749.041zm-7.184-.02c4.294 3.518 8.156 8.015 12.717 11.153a298.002 298.002 0 0 0-5.347-.107c-2.45-2.182-5.342-4.017-7.857-6.04a75.93 75.93 0 0 1-5.324-4.747c1.954-.157 3.895-.222 5.811-.259zm-7.152.342c1.775 1.993 3.646 3.894 5.66 5.671 1.883 1.661 3.866 3.461 5.948 5.057-1.679.008-3.359.003-5.037.059-4.578-2.888-8.597-6.241-12.528-9.856 1.928-.429 3.932-.726 5.957-.931zm-7.086 1.218c1.936 1.986 3.896 3.946 5.952 5.811 1.391 1.261 3.077 2.887 4.905 3.923-1.622.087-3.245.134-4.866.284a.596.596 0 0 0-.143-.331c-1.859-2.025-4.588-3.395-6.843-4.951a163.396 163.396 0 0 1-4.174-2.974c1.6-.752 3.358-1.299 5.169-1.762zm-6.34 2.325c.967.761 1.9 1.565 2.885 2.305 2.429 1.826 5.027 4.154 7.783 5.566-2.383.258-4.765.568-7.144 1.003-.386.07-.544.374-.602.705-.166.146-.241.385-.322.615-2.349-2.189-5.102-4.09-7.801-5.948 1.411-1.76 3.183-3.149 5.201-4.246zm-6.137 5.472a208.466 208.466 0 0 0 8.458 6.875c-.225 2.391-.43 4.786-.557 7.201-2.733-3.298-6.496-6.056-10.102-8.572.435-2.12 1.195-3.936 2.201-5.504zm-2.463 6.736c1.412 1.103 2.847 2.176 4.199 3.358 1.995 1.744 3.762 3.797 5.873 5.393.073.055.154.045.234.054-.079 1.742-.168 3.481-.208 5.232-2.85-3.006-6.585-5.558-10.274-7.493-.016-.765-.011-1.528-.039-2.294a23.982 23.982 0 0 1 .215-4.25zM52.97 37.267c-.036 2.662-.044 5.33-.009 8.005-1.943-1.837-4.27-3.455-6.254-5.151a70.157 70.157 0 0 0-3.981-3.155c.064-2.615.074-5.232.047-7.853a46.602 46.602 0 0 1 4.554 3.124c1.98 1.55 3.708 3.432 5.643 5.03zM42.222 50.552l.133-3.07c1.152 1.167 2.255 2.382 3.457 3.498 1.513 1.405 3.846 4.125 6.155 4.041.633-.023.786-.948.151-1.118-2.282-.609-4.62-3.29-6.336-4.795-1.144-1.003-2.246-2.054-3.363-3.087.112-2.596.191-5.187.265-7.78a89.906 89.906 0 0 1 3.873 3.424c2.003 1.866 4.033 4.179 6.448 5.559.12 6.277.361 12.572.693 18.85-1.818-1.651-3.887-3.134-5.717-4.722-1.905-1.653-3.874-3.225-5.937-4.668.061-2.043.091-4.089.178-6.132zm-.215 7.346a84.722 84.722 0 0 1 5.833 4.965c1.841 1.714 3.728 3.81 5.953 5.07.134 2.477.272 4.95.408 7.416-2.56-2.153-5.413-4.015-7.942-6.249-1.475-1.303-2.944-2.627-4.468-3.879.048-2.442.146-4.882.216-7.323zm-.24 8.796a231.317 231.317 0 0 1 4.406 4.086c2.255 2.132 5.016 5.226 8.114 6.127.167 3.049.328 6.089.467 9.109-4.812-3.492-9.168-7.203-13.115-11.659.03-2.554.082-5.107.128-7.663zm-.146 9.277c3.592 4.693 8.041 9.306 13.212 11.945.074 1.728.16 3.464.215 5.178.03.942.028 1.935.038 2.908-1.802-2.723-4.704-5.003-7.132-7.154-1.966-1.742-4.133-3.199-6.426-4.455.014-2.808.063-5.614.093-8.422zm-.102 9.613c2.237 1.402 4.261 3.082 6.204 4.919 2.195 2.076 4.073 4.766 6.599 6.429.282.186.593.055.773-.177.014 2.319 0 4.683-.049 7.103-2.053-2.458-4.977-4.374-7.442-6.325-2.142-1.695-4.149-3.503-6.133-5.346 0-2.201.039-4.402.048-6.603zm-.054 7.991c1.378 1.476 2.882 2.842 4.396 4.18 2.93 2.587 5.878 5.682 9.134 7.823.004.002.008 0 .011.002-.035 1.45-.057 2.875-.1 4.349-2.285-2.173-4.968-4.096-7.411-6.055a37.326 37.326 0 0 0-6.056-3.942c-.009-2.12.027-4.238.026-6.357zm-.022 7.108c2.155 1.375 4.201 2.876 6.153 4.589 2.346 2.059 4.554 4.592 7.269 6.162-.07 2.365-.139 4.747-.194 7.141-1.59-1.636-3.655-3.048-5.245-4.379-2.615-2.188-5.283-4.312-7.95-6.437-.02-2.361-.022-4.718-.033-7.076zm.042 8.098a446.83 446.83 0 0 0 6.192 5.648c2.187 1.949 4.439 4.656 6.97 6.329-.038 2.138-.082 4.279-.072 6.406-.075.009-.151.003-.225.06-.315.24-5.925-4.673-6.604-5.243-2.016-1.692-4.058-3.413-6.19-4.979-.034-2.741-.047-5.481-.071-8.221zm.086 9.587c3.562 3.265 10.808 10.114 13.009 9.896.023 2.304.07 4.596.188 6.852-3.24-2.89-6.555-5.722-9.844-8.558-.188-.162-2.015-1.693-3.288-2.366-.028-1.94-.04-3.881-.065-5.824zm.077 6.687c.717.577 1.69 1.282 1.899 1.482a678.784 678.784 0 0 1 4.32 4.166c1.825 1.771 4.067 4.78 6.623 5.498a.49.49 0 0 0 .348-.031c.105 1.743.228 3.477.411 5.172-1.139-.963-2.383-1.812-3.133-2.447-3.146-2.67-6.395-5.412-9.905-7.596-.194-.121-.356-.062-.481.045-.033-2.097-.052-4.194-.082-6.289zm.095 7.042c.001.001.001.001 0 0 2.889 2.13 5.679 4.385 8.408 6.711a92.006 92.006 0 0 1 4.028 3.643c.309.297.825.711 1.318 1.154.378 2.822.85 5.582 1.537 8.189a1.475 1.475 0 0 0-.283.822c-4.803-3.812-9.756-7.34-14.852-10.458-.058-3.353-.102-6.708-.156-10.061zm.79 52.138c-.013-1.748-.041-3.497-.059-5.246 1.061 1.397 2.192 2.741 3.342 4.059.532.608 1.155 1.331 1.813 2.06-1.701-.272-3.404-.517-5.096-.873zm7.893 1.353c-2.862-2.702-5.61-5.521-7.975-8.664-.023-2.042-.057-4.085-.084-6.128 5.109 5.049 9.544 11.284 15.208 15.564a136.087 136.087 0 0 1-7.149-.772zm9.661.927c-5.748-5.681-11.402-11.757-17.735-16.793-.035-2.559-.079-5.119-.119-7.679 7.818 8.605 15.4 17.837 24.756 24.723-2.302-.071-4.608-.098-6.902-.251zm8.921.325c-9.676-8.004-17.949-17.27-26.796-26.115-.044-2.757-.092-5.514-.14-8.271 10.707 12.013 22.063 24.483 34.747 34.437-2.605.005-5.21.005-7.811-.051zm10.153.055c-12.351-11.871-24.836-23.603-37.108-35.568-.046-2.654-.087-5.31-.133-7.965 18.185 11.706 31.476 28.581 46.84 43.405-3.2.047-6.399.105-9.599.128zm11.812-.16c-9.758-11.679-20.829-23.255-32.928-33.05 1.347.423 2.873.581 4.37.414.081.021.114.088.206.095.964.075 1.939.104 2.909.147a.363.363 0 0 0 .132.286c11.569 10.619 23.025 22.728 35.859 32.03-3.51-.001-7.026.025-10.548.078zm16.264-.047c-.948-.017-1.9-.007-2.852-.015-11.8-11.37-24.934-22.087-37.715-32.274 2.522.083 5.068.035 7.619-.043 5.165 4.792 10.702 9.468 16.537 13.37.043.029.078.002.121.021-.28.739-.505 1.502-.581 2.285-.423 4.336 4.946 7.372 8.718 6.291a6.306 6.306 0 0 0 1.389-.603c3.931 4.183 8.488 7.875 13.063 11.292-2.529-.154-4.73-.297-6.299-.324zm7.914.418c.056-.209.054-.429-.122-.604-4.185-4.195-9.131-7.521-13.553-11.465 1.628-1.35 2.677-3.414 3.139-5.481 6.861 6.414 14.752 11.607 21.763 17.879-3.932.043-7.833-.131-11.227-.329zm13.585.278c-6.68-7.652-16.065-12.615-23.932-18.937.016-.135.059-.274.069-.408.32-4.167-3.053-6.902-6.96-7.085-.804-.037-1.209.458-1.287 1.035a8.22 8.22 0 0 0-1.544.765c-4.192-2.839-8.255-5.826-12.33-8.825 3.225-.234 6.447-.521 9.649-.797 14.454 11.449 28.179 24.317 44.262 33.478-2.509.429-5.192.674-7.927.774zm10.781-1.355c-16.671-9.142-30.21-22.584-45.996-32.985 2.869-.246 5.726-.488 8.544-.668 13.136 10.768 24.657 24.421 39.325 33.103-.603.202-1.227.385-1.873.55zm10.069-8.543c-.529 3.433-2.883 5.725-6.249 7.236-13.945-9.96-25.797-22.431-39.585-32.509 2.274-.212 4.911-.581 7.7-.976 4.841 4.324 10.218 7.944 15.58 11.586 7.573 5.144 13.847 10.946 20.363 17.28.533.519 1.4-.143 1.026-.792-7.361-12.768-23.836-19.59-35.408-28.289 2.842-.398 5.813-.792 8.744-1.075 9.082 7.525 18.617 15.08 28.274 21.767-.032 1.915-.147 3.835-.445 5.772z" fill="#FEB822" opacity="1" data-original="#000000" class=""></path></g></svg>