<svg xmlns="http://www.w3.org/2000/svg" version="1.1" xmlns:xlink="http://www.w3.org/1999/xlink" width="512" height="512" x="0" y="0" viewBox="0 0 192.35 192.351" style="enable-background:new 0 0 512 512" xml:space="preserve" class=""><g><path d="M164.048 42.791c-.607-11.241-.876-28.009-10.819-35.468-1.241-.932-2.588-.845-3.706-.222-4.771-5.421-17.467-4.929-23.969-5.576C109.385-.085 93.03-.324 76.806.359 71.328.59 33.37 2.003 33.007 14.019a2.137 2.137 0 0 0-.538.705c-1.933 4.147-.906 9.112-.859 13.592.107 10.184.224 20.365.239 30.551.023 15.589-.367 30.918-1.51 46.469-1.294 17.615-2.644 35.258-2.523 52.934.032 4.682-.617 15.31 2.422 21.465-.081.472-.083.96.036 1.41 2.738 10.418 21.578 9.772 29.85 10.334 27.884 1.895 56.722.49 84.497-2.182a4.198 4.198 0 0 0 1.909-.662c1.039.352 2.234.282 3.257-.186 10.595-4.857 9.786-28.127 10.635-37.549 1.278-14.213 1.873-28.403 2.63-42.655 1.158-21.786 2.173-43.648.996-65.454zM146.06 57.608c.022-4.582-.011-9.165-.163-13.749 3.15 3.348 6.211 6.779 9.049 10.416.365.468.832.666 1.309.671a161.527 161.527 0 0 0-.039 4.702c.021 2.098-.005 4.196-.019 6.295-1.113-.611-2.241-1.2-3.266-1.881-2.611-1.74-4.865-4.045-6.871-6.454zm1.185-44.764c.114-.004.21-.043.319-.057.188.325.418.639.74.919 4.453 3.872 6.507 10.717 7.417 18.219-2.429-2.567-5.531-4.826-7.752-7-4.362-4.269-8.873-8.684-12.658-13.577 4.048.846 8.117 1.639 11.934 1.496zm-21.69-3.201c2.066.186 4.208.573 6.376 1.01 3.265 5.131 7.354 9.797 11.356 14.3 3.511 3.949 7.879 10.247 12.922 12.76.209 3.915.21 7.848.152 11.495-11.009-15.213-27.054-25.969-39.254-40.199 2.819.189 5.636.38 8.448.634zm-12.451-.897c.034.067.041.137.09.203 7.93 10.688 17.73 19.701 27.104 29.122-.798-.069-1.594-.065-2.345.071-.097-.782-.495-1.543-1.199-2.014-2.437-1.63-5.443-2.49-8.71-2.891-4.93-5.086-9.872-10.156-14.878-15.163-.852-1.333-2.039-2.453-3.42-3.37a662.047 662.047 0 0 0-6.574-6.409c3.311.101 6.622.263 9.932.451zm-10.173 21.481c.862-.088 1.76-.212 2.659-.38-.306.431-.368 1.026.116 1.541.945 1.007 1.966 1.923 3.005 2.821-2.272.3-4.458.585-6.363.757-1.48.133-2.95.248-4.428.38-2.848-2.463-5.684-4.905-8.479-7.369 3.896 2.304 9.703 2.64 13.49 2.25zm-12.469-9.081c-.243-2.573 2.349-3.895 5.062-4.513.179.049.366.08.574.059 4.738-.468 9.468-.689 13.056 3.045 3.649 3.799-3.689 5.251-6.224 5.531-3.199.353-12.023.585-12.468-4.122zm17.013 8.473c-.075-.068-.156-.095-.234-.141 2.436-.654 4.732-1.785 6.203-3.842a5.95 5.95 0 0 0 .608-1.096 342.969 342.969 0 0 0 7.896 8.419c-3.112.066-6.288.393-9.349.764-1.738-1.33-3.494-2.644-5.124-4.104zM99.456 8.202c1.188 1.327 2.39 2.643 3.57 3.977a15.821 15.821 0 0 0-4.267-.045c.019-.343-.052-.686-.371-.967-.697-.613-1.428-.831-2.267-1.188-.917-.39-1.747-.976-2.493-1.629-.083-.072-.149-.16-.229-.236 2.019.005 4.038.047 6.057.088zm-9.512-.142c.485.799 1.04 1.56 1.707 2.266.723.764 1.75 1.654 2.861 2.305-1.594.075-3.17.422-4.713 1.179a7.816 7.816 0 0 0-3.12 2.795c-.381-.236-.789-.453-1.21-.695-1.501-.862-2.916-1.874-4.299-2.912a149.595 149.595 0 0 1-2.845-2.177c-.517-.409-.793-.314-1.211-.675-.948-.818-2.199.425-1.373 1.373.366.42.251.664.722 1.166a37.636 37.636 0 0 0 2.824 2.754c1.507 1.307 3.938 3.812 6.23 4.382-.052.338-.154.664-.165 1.011-.061 1.919.477 3.46 1.379 4.719-5.96-5.385-11.606-11.051-16.54-17.595 7.931-.225 15.332.006 19.753.104zm-22.329-.015c6.202 10.476 14.777 20 24.316 27.812-1.939.164-3.886.35-5.824.499-9.622-8.321-18.578-16.681-25.647-27.468a1.404 1.404 0 0 0-.348-.362c2.468-.223 4.995-.377 7.503-.481zm-9.093.641c-.352.345-.52.878-.222 1.466 5.246 10.367 13.772 18.783 22.383 26.594-2.176.139-4.352.264-6.53.359-1.524-1.092-3.231-2.012-4.676-3.183-2.574-2.088-4.795-4.622-6.993-7.09-4.773-5.361-9.026-11.157-13.774-16.542 2.954-.727 6.308-1.237 9.812-1.604zm-12.08 2.209c.001.268.07.544.274.798 4.961 6.169 9.618 12.572 14.79 18.574 1.687 1.959 3.921 4.74 6.428 6.995-1.817.031-3.63.097-5.451.078-1.555-1.868-3.576-3.516-5.233-5.188-2.878-2.903-5.725-5.838-8.602-8.742-3.038-3.067-5.916-6.27-9.342-8.807 1.586-1.568 4.089-2.771 7.136-3.708zm-8.225 5.093c2.087 3.167 4.744 5.925 7.33 8.806a904.77 904.77 0 0 0 8.305 9.097c.937 1.014 1.882 2.161 2.86 3.285-.423-.019-.845-.021-1.268-.044-1.359-.072-2.19.915-2.415 2.033-.624-2.554-4.098-3.261-5.364-.96a33.705 33.705 0 0 1-.84-.58c-1.875-1.338-3.491-3.121-5.041-4.807a73.396 73.396 0 0 1-2.597-2.994c.029-4.167.287-9.43-1.322-13.226.097-.211.231-.408.352-.61zm1.287 35.049c.653.723 1.295 1.455 2.02 2.119.972.89 2.166 1.861 3.446 2.545-.12 3.406-.079 6.845.051 10.28a23.102 23.102 0 0 0-.573-.387c-.875-.576-1.619-1.364-2.334-2.119a56.494 56.494 0 0 1-2.493-2.854c-.003-.586.01-1.168.007-1.755-.017-2.61-.093-5.218-.124-7.829zm3.187-.075c-1.198-1.019-2.249-2.2-3.242-3.427-.061-4.291-.119-8.582-.203-12.873a79.957 79.957 0 0 0 3.189 3.636c.775.833 2.505 2.333 4.253 3.27-.812 3.591-1.304 7.278-1.555 11.023-.842-.48-1.679-.979-2.442-1.629zm-3.215 27.277c1.268 1.068 2.735 2.144 4.167 2.07.932-.049 1.651-1.066 1.108-1.931-.968-1.543-3.192-2.296-4.669-3.277-.175-.117-.342-.248-.516-.367.045-3.145.031-6.304.037-9.457.802.916 1.631 1.806 2.524 2.627.771.708 1.952 1.271 3.019 1.304.311 5.988.82 11.933 1.138 17.644.158 2.831.284 5.65.419 8.473-2.034-2.678-5.174-6.416-7.469-7.695.13-3.132.176-6.262.242-9.391zm-.155 12.005c1.122 1.216 2.08 2.583 3.063 3.91 1.386 1.87 2.588 4.257 4.54 5.604.205 4.803.372 9.602.462 14.397-1.7-1.238-3.667-2.321-5.156-3.554-1.45-1.199-2.834-2.478-4.2-3.774.197-2.672.393-5.347.587-8.017.213-2.928.371-5.849.509-8.769.063.069.131.134.195.203zm-1.555 20.194a92.595 92.595 0 0 0 3.104 2.9c1.833 1.614 4.12 3.811 6.594 4.582.036 3.615.027 7.23-.047 10.848-.202-.133-.4-.26-.602-.4-1.402-.975-2.633-2.206-3.822-3.421-2.233-2.282-4.076-4.942-5.729-7.675.163-2.28.334-4.557.502-6.834zm.883 70.305c-.16-3.345-.536-6.667-.962-9.989 1.195 1.307 2.455 2.443 2.961 2.969 3.11 3.226 6.392 6.724 9.812 9.971-4.569-.428-8.884-1.288-11.811-2.951zm18.419 3.312c-3.172-3.25-7.061-6.082-10.347-8.996-.668-.594-7.106-5.799-9.54-8.19-.561-4.181-1.098-8.388-1.353-12.666a949.406 949.406 0 0 0 16.237 16.726c3.953 3.965 8.215 8.918 12.836 13.103-2.33.046-5.02.082-7.833.023zm15.543-.127c-5.553-5.516-12.443-10.365-18.047-15.502-6.346-5.818-12.578-11.754-18.852-17.646-.014-.797-.052-1.585-.038-2.387.065-3.733.205-7.465.373-11.195 5.311 10.586 14.525 19.458 22.917 27.486 6.622 6.336 14.503 13.896 22.902 19.199-3.084.019-6.169.034-9.255.045zm17.721-.125C71.357 168.02 49.531 155.66 36.741 133.54a1.1 1.1 0 0 0-.486-.45c.202-3.822.474-7.642.732-11.461a44.593 44.593 0 0 0 3.982 5.344c1.624 1.879 3.86 4.336 6.363 5.312-.147 4.533-.39 9.072-.78 13.623-.228 2.664 3.952 3.132 4.59.621 4.058-15.953 4.314-32.391 3.604-48.764-.818-18.837-.233-38.082-1.509-56.823a2.165 2.165 0 0 0 1.53 1.201c14.107 3.1 28.87 1.699 43.135.534 11.405-.932 24.969.663 36.208-1.429-.483 1.348-.095 2.761 1.172 3.574 7.909 5.071 2.149 34.554 1.577 44.008-.921 15.219-5.665 34.684-3.929 50.834-.713-.062-1.39.93-.799 1.686.396.506.828.98 1.233 1.478.197 1.168.43 2.315.709 3.438-5.847-2.559-12.731-1.641-19.029-1.865-10.651-.377-21.299-.812-31.959-.732-10.388.079-20.904.137-30.598 2.28a1.004 1.004 0 0 0-.484.159 1.06 1.06 0 0 0-.657 1.111c-.041.461.163.894.657 1.111.142.092.297.143.469.158 2.074.459 4.195.797 6.334 1.086 5.649 5.992 13.874 13.797 22.222 15.426-1.535 3.703-.651 7.859 3.89 10.572 2.688 1.605 5.966 2.205 9.228 1.984 1.597 1.344 3.201 2.68 4.777 4.049.698.607 1.389 1.299 2.083 2.002-3.558.079-7.115.153-10.674.196zm-6.472-23.18a1.91 1.91 0 0 0-.193.528c-.696.675-1.258 1.419-1.749 2.185-2.88-2.676-6.494-4.406-9.812-6.473-3.279-2.042-6.366-4.376-9.315-6.869 6.084.572 12.326.715 18.574.762l.263.006c1.545.849 3.098 1.687 4.629 2.557 1.517.861 2.967 1.896 4.447 2.843-2.874.606-5.441 1.971-6.844 4.461zm8.229.53c1.925-.49 3.979-.324 5.884.155 2.612.658 6.114 2.682 5.114 5.818-.667 2.094-3.562 3.809-5.434 4.483-2.642.952-5.506 1.032-8.212.351-1.864-.471-4.058-1.695-4.746-3.602-.615-1.707.111-3.307 1.149-4.715.101-.016.197-.014.301-.049 2.056-.699 3.828-1.903 5.944-2.441zm13.654 22.338c-1.363-1.248-2.981-2.321-4.363-3.367a114.442 114.442 0 0 0-4.217-3.019c2.868-.668 5.567-1.99 7.659-3.895 3.078 3.197 6.312 6.234 9.646 9.164.24.211.526.487.836.792-3.186.131-6.373.237-9.561.325zm14.8-.575c-1.45-1.014-3.076-1.891-4.004-2.611a149.211 149.211 0 0 1-10.259-8.729c.158-.2.358-.367.504-.577 3.68-5.296.628-11.062-4.702-13.601-2.081-.99-4.813-1.588-7.568-1.623-.057-.077-.102-.156-.188-.227-2.048-1.664-4.723-2.738-7.07-3.938-.521-.267-1.057-.517-1.582-.777 4.975.076 9.948.231 14.922.38 4.802 6.34 10.43 11.963 16.229 17.424 4.71 4.435 9.512 9.381 14.642 13.639a587.49 587.49 0 0 1-10.924.64zm16.82-1.107c-4.64-5.326-11.151-9.631-16.387-14.082-6.074-5.162-12.192-10.512-17.593-16.443.838.025 1.675.036 2.513.064 3.018.1 6.478.516 10.028.849-.104.368-.058.778.285 1.14 5.057 5.338 9.274 11.416 13.895 17.123 3.021 3.73 7.324 9.868 12.46 10.914a911.16 911.16 0 0 1-5.201.435zm7.963-.606a4.348 4.348 0 0 0-.704-.001c-.089.009-.178.013-.266.022.645-.625.515-1.967-.266-2.557-4.8-3.633-8.868-6.882-12.833-11.529-4.182-4.899-8.047-10.08-12.527-14.717 2.593.189 5.187.274 7.652.112.016.166.065.339.182.519a104.581 104.581 0 0 0 9.354 12.377c2.679 3.056 6.721 8.553 10.985 9.254.163.025.326-.022.489-.053-.628 2.245-1.3 4.451-2.066 6.573zm2.658-8.863c-2.366-3.043-6.376-5.123-9.112-7.906-3.692-3.75-6.971-7.93-10.026-12.209 1.643-.248 3.233-.59 4.665-1.188.801-.334 1.457-1.123 1.749-1.98.921.744 2.291.549 3.166-.33 1.031 1.143 2.057 2.291 3.103 3.422 2.191 2.371 5.58 7.104 8.969 7.906-.688 4.207-1.499 8.33-2.514 12.285zm3.001-15.531c-.748-.705-1.637-1.289-2.456-1.947-1.791-1.436-3.506-2.967-5.205-4.51-1.337-1.213-2.598-2.512-3.856-3.809 1.493-4.078 2.383-8.585 2.979-13.257 1.132 1.06 2.26 2.12 3.396 3.172 1.801 1.668 4.201 4.593 6.737 6.038-.427 4.82-.915 9.623-1.595 14.313zm1.98-18.754c-2.099-1.719-4.39-3.289-6.416-4.951-1.163-.955-2.409-2.141-3.703-3.198.41-4.343.574-8.782.696-13.173a44.848 44.848 0 0 1 4.296 3.32c2.08 1.811 3.903 3.898 5.924 5.766a655.768 655.768 0 0 1-.797 12.236zm1.281-21c-.076 1.438-.162 2.916-.241 4.371a44.56 44.56 0 0 0-10.372-7.512c.081-3.344.179-6.583.315-9.74 1.232.961 2.472 1.914 3.693 2.859 2.075 1.605 4.361 3.533 6.898 4.505l-.293 5.517zm.504-9.479c-3.636-2.298-7.074-4.859-10.604-7.29.021-.304.026-.638.049-.938.295-3.895.554-7.793.795-11.691 1.739.776 3.894 3.036 4.601 3.719 1.913 1.846 3.612 4.183 5.683 5.934-.167 3.42-.341 6.844-.524 10.266zm.739-15.011c-2.993-3.071-7.225-6.62-10.339-7.308.153-2.599.274-5.199.395-7.799 1.597 1.237 3.327 2.329 5.019 3.311 1.668.967 3.41 1.87 5.273 2.13-.112 3.223-.203 6.445-.348 9.666zM145.7 74.059c.163-4.063.243-8.129.304-12.194 1.309 1.478 2.681 2.895 4.188 4.212 1.743 1.523 3.757 3.404 5.972 4.505a681.987 681.987 0 0 1-.21 9.048c-3.643-1.371-7.106-3.297-10.254-5.571z" fill="#F39C12" opacity="1" data-original="#000000" class=""></path></g></svg>